<?xml version="1.0" standalone="no"?><svg xmlns="http://www.w3.org/2000/svg" viewBox="0 0 1440 320"><path fill="#546cf4" fill-opacity="1" d="M0,64L40,106.7C80,149,160,235,240,234.7C320,235,400,149,480,149.3C560,149,640,235,720,250.7C800,267,880,213,960,165.3C1040,117,1120,75,1200,96C1280,117,1360,203,1400,245.3L1440,288L1440,320L1400,320C1360,320,1280,320,1200,320C1120,320,1040,320,960,320C880,320,800,320,720,320C640,320,560,320,480,320C400,320,320,320,240,320C160,320,80,320,40,320L0,320Z"></path></svg>