<?xml version="1.0" standalone="no"?><svg xmlns="http://www.w3.org/2000/svg" viewBox="0 0 1440 320"><path fill="#0d1fe9" fill-opacity="1" d="M0,224L40,197.3C80,171,160,117,240,96C320,75,400,85,480,117.3C560,149,640,203,720,202.7C800,203,880,149,960,122.7C1040,96,1120,96,1200,117.3C1280,139,1360,181,1400,202.7L1440,224L1440,320L1400,320C1360,320,1280,320,1200,320C1120,320,1040,320,960,320C880,320,800,320,720,320C640,320,560,320,480,320C400,320,320,320,240,320C160,320,80,320,40,320L0,320Z"></path></svg>